<svg width="1000" height="1000" viewBox="0 0 1000 1000" fill="none" xmlns="http://www.w3.org/2000/svg"
     version="1.1" xmlns:xlink="http://www.w3.org/1999/xlink">

    <g>

        <path id="funnel"
              d="M794.572 750.402C736.586 799.593 667.3 832.751 590.282 845.024C548.75 851.457 509.102 851.754 467.471 845.321C422.668 838.59 382.028 824.734 342.379 803.849C268.93 765.248 211.538 704.377 176.449 630.045C140.666 553.437 131.944 468.218 154.246 385.176C163.563 349.742 177.143 318.861 197.067 287.683C211.935 264.522 227.993 245.222 247.321 226.218C292.124 182.767 344.659 153.767 406.808 140.306C411.962 139.316 416.819 138.326 421.974 137.436C427.128 136.743 431.985 135.852 437.139 135.159C511.58 125.855 584.137 141.593 648.863 183.46C680.087 203.75 704.272 226.911 728.458 254.229C730.044 256.208 731.729 259.079 734.604 259.376C734.901 258.089 733.91 257.099 733.91 256.109C733.612 254.823 732.919 253.833 732.324 252.546C700.109 194.644 646.584 155.054 586.615 130.606C557.969 119.026 528.629 112.592 497.703 109.029C477.383 106.753 457.459 106.753 437.139 108.732C420.685 110.019 405.222 111.998 388.768 115.859C329.097 129.418 278.247 155.449 232.75 195.04C178.927 242.055 141.261 300.253 120.644 367.855C100.621 432.883 97.7467 498.208 112.218 566.106C127.384 636.875 159.301 698.043 204.996 750.501C167.925 708.633 139.279 660.431 121.239 606.687C104.19 555.812 97.3502 503.057 100.919 450.006C108.055 338.062 161.878 234.433 256.242 165.149C286.177 143.275 316.211 127.835 349.714 115.265C377.765 104.971 406.412 98.8345 436.049 95.6672C498.892 88.9367 561.438 99.2304 619.127 125.261C639.149 134.565 656.793 144.562 675.527 157.726C696.144 172.177 712.599 187.32 729.35 205.037C745.111 222.061 757.996 239.481 769.99 259.376C782.579 280.953 792.193 302.134 799.925 325.393C811.225 359.837 816.379 394.875 816.082 430.606C815.09 494.941 795.762 556.109 756.113 610.547C731.333 644.001 703.876 669.438 668.787 691.609C667.498 692.599 666.21 693.589 664.921 694.479C664.227 694.776 663.335 695.172 662.641 695.469C654.91 700.913 647.476 704.476 639.447 709.623C638.456 710.316 637.464 710.91 636.87 711.899C636.87 712.196 636.87 712.592 637.167 712.592C643.907 712.592 650.35 709.722 656.793 707.149C672.95 701.309 687.422 693.589 702.587 683.988C728.359 666.964 748.976 648.554 768.701 625.393C816.082 568.382 841.556 499.593 843.836 427.439C844.53 401.705 842.547 376.961 837.988 350.831C833.428 325.393 826.093 302.53 816.379 279.369C798.934 238.194 774.451 201.771 743.227 169.009C702.29 126.845 654.315 95.9641 599.501 76.3666C534.08 53.2059 466.38 47.0694 396.499 59.6395C323.942 72.8034 259.513 103.684 205.095 149.709C258.621 103.387 322.059 72.1106 394.319 57.6599C431.093 50.5336 465.885 48.3561 502.262 51.2264C537.351 54.0967 571.251 60.9262 604.457 72.8034C671.166 96.657 728.855 135.852 774.649 192.17C797.249 220.181 814.595 249.181 828.472 281.348C841.655 311.932 850.08 343.506 854.541 376.96C866.138 463.17 848.098 546.212 797.149 620.939C763.349 670.131 722.015 705.862 670.769 731.992C619.226 758.419 562.132 769.999 505.137 766.733C458.054 763.863 412.954 751.589 370.728 728.429C360.122 722.292 350.408 716.551 340.099 709.425C333.359 704.575 327.511 700.418 321.365 695.271C316.211 690.421 311.057 686.561 305.902 681.711C299.757 675.872 294.305 670.131 288.159 664.291C284.888 660.728 281.717 657.165 278.446 653.305C276.86 651.721 275.175 650.435 273.886 648.752C272.3 646.476 270.318 644.892 268.732 642.615C267.74 641.626 266.749 641.032 265.857 640.339C264.866 640.042 264.569 641.032 264.866 641.626C266.848 646.476 269.029 650.929 272.003 655.779C281.717 670.923 291.629 683.493 303.92 696.36C311.949 705.07 320.374 712.493 329.394 720.214C346.146 733.773 362.897 744.958 381.929 754.955C393.823 761.091 405.817 766.535 418.306 771.385C430.201 775.542 441.798 779.402 454.387 782.668C509.498 796.525 563.619 795.832 619.028 781.975C668.291 769.702 710.517 748.818 751.157 717.64C837.492 651.028 886.557 553.833 894.883 448.917C897.163 419.026 896.469 390.025 892.009 359.738C888.44 337.172 883.584 316.584 876.843 295.007C859.794 240.669 831.445 191.675 794.374 149.511C846.413 206.918 880.907 276.993 894.19 355.581C908.364 438.623 896.469 519.983 859.993 594.71C824.903 666.766 769.395 725.36 697.929 763.368C678.302 773.661 658.974 782.371 637.663 788.805C629.237 791.378 621.506 793.655 613.18 795.931C604.754 797.911 597.023 799.494 588.399 801.078C547.164 808.204 508.507 808.204 467.57 801.375C373.801 785.934 294.503 737.337 239.986 656.571C227.101 637.568 217.783 619.257 209.06 599.263C197.76 572.836 190.723 545.816 186.461 516.914C177.441 450.6 188.74 385.571 220.261 326.68C237.013 295.502 257.333 268.778 283.402 244.628C285.681 242.648 287.565 241.065 289.547 239.184C292.422 236.908 294.999 234.334 298.27 232.058C299.261 231.068 299.856 230.078 300.847 229.484C310.164 222.358 318.59 215.925 328.601 209.491C339.604 202.365 349.516 196.921 360.518 190.19C361.51 189.498 361.807 188.904 362.798 188.211C362.798 187.914 362.798 187.221 362.501 187.221C353.481 187.518 345.749 192.071 337.324 194.644C318.986 202.662 301.838 212.361 284.789 224.536C240.284 256.703 208.763 296.591 186.461 344.595C178.729 361.619 172.584 378.346 167.429 396.36C156.129 438.227 153.255 479.996 157.715 522.853C161.284 553.437 168.321 582.734 179.621 611.339C192.21 642.516 207.375 671.22 228.587 698.538C239.887 712.988 251.187 725.855 264.073 738.425C272.102 746.146 280.23 753.272 288.853 760.596C336.233 799.197 387.479 824.041 447.745 837.205C509.994 850.765 569.269 850.072 630.129 834.334C662.641 825.921 692.378 815.034 721.619 799.296C748.183 785.143 771.972 769.108 794.572 750.402Z"
              fill="#D3EFED"/>
        <animateTransform
                attributeName="transform"
                type="rotate"
                dur="8s"
                values="0 500 450;360 500 450"
                keyTimes="0; 1"
                calcMode="linear"
                repeatCount="indefinite"
        />
    </g>

    <g id="octopus">
        <g id="Group">
            <path id="Vector"
                  d="M818.091 446.807L787.191 480.007C787.191 480.007 809.291 510.807 832.091 492.907C854.791 475.007 851.991 447.007 851.991 447.007L818.091 446.807Z"
                  fill="#81C9C5"/>
            <path id="Vector_2"
                  d="M730.091 381.307C730.091 381.307 851.991 445.107 832.091 492.807L936.491 410.507C974.591 367.107 886.591 272.607 838.591 272.307C820.591 272.207 730.091 381.307 730.091 381.307Z"
                  fill="#A6E6E1"/>
        </g>
        <g id="Group_2">
            <path id="Vector_3"
                  d="M607.191 578.007C607.291 578.007 607.391 578.107 607.591 578.107C607.391 578.107 607.291 578.007 607.191 578.007Z"
                  fill="#FF9900"/>
            <path id="Vector_4"
                  d="M859.191 636.807C859.091 642.907 858.091 648.707 856.291 654.307C855.391 657.107 854.191 659.907 852.791 662.607C851.391 665.307 849.691 667.907 847.591 670.507C845.491 673.007 842.891 675.507 839.591 677.607C837.891 678.607 835.991 679.507 833.891 680.207C831.791 680.907 829.391 681.207 827.091 681.107C821.291 681.207 816.491 676.507 816.391 670.607C816.391 667.307 817.791 664.407 820.191 662.407C821.991 660.907 824.291 659.907 826.891 659.907C826.891 659.807 826.791 659.807 826.891 659.707C826.991 659.607 827.091 659.407 827.391 659.207C827.891 658.707 828.591 657.807 829.191 656.707C830.491 654.407 831.591 651.207 832.191 647.907C832.691 644.607 832.791 641.207 832.291 638.007C831.791 634.807 830.891 631.907 829.491 629.607C828.091 627.207 826.491 625.407 824.491 624.007C822.491 622.607 820.191 621.607 817.391 620.907C814.591 620.207 811.491 619.807 808.091 619.807C806.391 619.807 804.591 619.907 802.791 620.107C800.991 620.307 799.391 620.507 797.791 620.907C794.591 621.607 791.691 622.607 789.091 624.007C786.491 625.307 784.291 627.007 782.091 628.907C779.891 630.907 777.891 633.207 775.891 636.007C773.891 638.707 771.891 641.907 769.991 645.307C766.091 652.207 762.391 660.107 758.091 668.707C753.791 677.307 748.991 686.507 742.391 695.907C739.091 700.607 735.391 705.207 731.091 709.707C726.791 714.207 721.991 718.507 716.691 722.307C711.391 726.107 705.591 729.407 699.591 732.107C693.591 734.807 687.391 736.907 681.291 738.407C675.091 740.007 668.991 741.007 662.991 741.607L661.891 741.707L660.591 741.807L658.191 742.007C656.591 742.107 654.991 742.107 653.291 742.207C651.691 742.207 650.091 742.207 648.391 742.207C646.791 742.207 645.191 742.107 643.491 742.007C630.491 741.107 617.791 737.907 606.191 733.407C598.391 730.307 590.991 726.607 584.091 722.507C580.791 720.507 577.491 718.407 574.391 716.307C566.891 711.207 559.991 705.607 553.591 699.807C553.791 700.307 553.991 700.807 554.191 701.307C555.491 704.207 556.891 706.907 558.391 709.507C561.491 714.607 565.191 719.007 569.791 722.707C574.391 726.407 579.791 729.607 586.191 732.007L587.391 732.507L588.591 732.907C589.391 733.207 590.291 733.507 591.091 733.707L592.391 734.107L593.091 734.307L594.091 734.507L598.191 735.507C603.691 736.907 609.091 738.407 614.491 740.207C619.891 742.007 625.291 743.907 630.691 746.207C636.091 748.407 641.391 750.907 646.691 753.707C657.191 759.207 667.491 765.907 676.891 774.407C681.591 778.607 686.091 783.207 690.191 788.307C694.291 793.407 697.991 799.007 701.191 805.007C702.791 808.007 704.191 811.107 705.391 814.407C705.991 816.007 706.591 817.707 707.091 819.307C707.391 820.107 707.591 821.007 707.791 821.807C707.991 822.607 708.291 823.507 708.491 824.307L709.091 826.907L709.591 829.507C709.791 830.407 709.891 831.207 709.991 832.107C710.091 833.007 710.291 833.807 710.291 834.707C710.691 838.207 710.791 841.707 710.691 845.307C710.591 848.807 710.291 852.307 709.691 855.807C709.091 859.307 708.291 862.707 707.291 866.007C706.191 869.307 704.991 872.507 703.591 875.607C702.091 878.707 700.491 881.707 698.691 884.507C696.891 887.307 694.991 890.007 692.891 892.507C691.891 893.807 690.791 895.007 689.691 896.207L687.991 898.007L687.191 898.907L686.291 899.707L684.591 901.407L682.791 903.007L681.891 903.807L680.991 904.607L679.191 906.107C676.691 908.007 674.191 909.807 671.591 911.407C668.991 913.107 666.391 914.507 663.691 915.907C660.691 917.507 657.491 918.807 654.191 919.907C647.591 922.107 640.591 923.207 633.691 923.007C626.791 922.907 620.191 921.507 614.091 919.307C607.991 917.107 602.391 914.107 597.291 910.407C592.191 906.807 587.691 902.607 583.791 897.907C579.891 893.207 576.591 888.007 573.991 882.407C571.391 876.807 569.691 870.707 569.091 864.207C568.491 857.807 569.191 851.107 571.291 844.907C573.191 839.407 579.191 836.507 584.791 838.407C589.791 840.107 592.591 845.207 591.791 850.207L591.691 850.807C591.091 854.107 591.291 857.507 592.091 860.807C592.991 864.207 594.491 867.507 596.491 870.607C600.491 876.907 606.591 882.207 613.191 885.507C616.491 887.207 619.891 888.407 623.191 889.007C626.491 889.707 629.791 889.707 632.791 889.307C635.791 888.907 638.591 887.907 641.291 886.507C642.591 885.807 643.891 885.007 645.091 884.107C646.691 882.907 648.191 881.807 649.591 880.507C651.691 878.707 653.491 876.807 655.191 874.907C658.191 871.407 660.491 867.707 662.091 863.907C664.591 857.907 665.391 851.907 664.491 846.307C663.691 840.607 661.291 835.307 657.591 830.307C655.691 827.807 653.591 825.407 650.991 823.207C648.491 821.007 645.691 818.807 642.691 816.907C636.691 813.007 629.691 809.707 622.191 807.107C618.491 805.807 614.591 804.607 610.591 803.607C606.591 802.607 602.591 801.807 598.391 801.107C594.291 800.407 589.991 799.807 585.791 799.407L582.591 799.107L581.791 799.007L580.591 798.907L578.191 798.607C576.591 798.407 574.991 798.107 573.491 797.907L571.091 797.507L568.691 797.007C562.291 795.707 555.891 793.907 549.591 791.507C543.191 789.207 536.991 786.207 530.891 782.807C524.891 779.307 518.991 775.307 513.691 770.807C508.291 766.307 503.291 761.407 498.691 756.207C494.191 751.007 490.091 745.507 486.391 739.807C485.091 737.807 483.991 735.907 482.791 733.907C482.591 733.607 482.391 733.207 482.191 732.907C482.191 732.907 482.191 732.907 482.191 732.807C481.491 735.207 480.791 737.507 480.191 739.907C476.991 752.307 474.891 764.707 474.691 776.407C474.591 779.307 474.691 782.207 474.791 784.907L474.891 787.007L475.091 789.007L475.791 794.707C476.791 803.907 477.091 813.307 476.591 822.807C475.991 832.307 474.491 841.907 471.891 851.407C469.291 860.807 465.491 870.107 460.491 878.607C455.491 887.207 449.291 895.007 442.191 901.807C435.091 908.507 426.991 914.207 418.291 918.407C409.591 922.707 400.391 925.607 390.791 926.907C382.091 928.107 373.091 928.007 364.291 926.207C363.391 926.007 362.591 925.807 361.691 925.607C356.891 924.407 352.191 922.607 347.691 920.307C343.191 918.007 339.091 915.007 335.391 911.507C331.691 908.007 328.591 904.007 326.191 899.707C323.791 895.407 322.091 890.907 320.991 886.307C319.591 880.607 323.091 874.907 328.791 873.507C333.691 872.307 338.591 874.707 340.791 879.107L340.991 879.607C343.691 884.907 347.391 888.907 351.791 891.407C356.191 893.907 361.291 895.207 366.691 895.207C371.991 895.207 377.591 894.107 382.791 892.107C387.991 890.107 392.891 887.207 397.191 883.607C401.491 880.107 405.191 875.907 408.091 871.407C411.091 866.907 413.291 862.007 414.791 856.907C417.891 846.707 418.091 835.707 416.191 824.507C415.191 818.907 413.691 813.207 411.791 807.607C411.591 806.907 411.291 806.207 410.991 805.507L410.891 805.207V805.107L410.791 804.907L410.591 804.007L410.091 802.207C409.791 801.007 409.491 799.807 409.191 798.707L408.391 795.207C407.391 790.507 406.691 785.807 406.091 781.207C404.991 772.207 404.491 763.307 404.591 754.507C404.591 754.307 404.591 754.007 404.591 753.807C404.591 752.907 404.591 752.107 404.591 751.207C398.391 756.907 392.091 762.307 386.091 767.207C377.191 774.507 367.791 781.107 357.791 786.907C328.391 803.707 294.191 811.607 260.891 802.907C234.791 796.107 213.591 780.107 194.991 761.107C181.191 747.007 136.491 677.407 116.191 707.707C113.791 711.307 111.991 715.807 111.191 720.507C110.691 723.607 110.591 726.807 111.091 729.707C112.791 738.207 130.991 757.007 110.791 758.607C89.7908 760.207 83.8908 724.307 85.7908 710.707C91.5908 669.107 132.591 654.607 168.091 675.207C198.591 691.807 219.691 721.807 250.991 736.807C283.891 752.607 312.891 735.107 334.891 710.807C329.991 711.107 324.991 711.207 319.991 711.007C313.591 710.807 307.191 710.007 300.791 708.807C288.091 706.507 275.891 702.207 264.691 696.507C259.091 693.707 253.891 690.507 248.891 687.007L246.991 685.707L244.891 684.207C244.191 683.707 243.491 683.207 242.791 682.607C242.091 682.107 241.391 681.507 240.791 681.007C238.091 678.807 235.491 676.407 233.091 673.907C228.191 668.907 223.891 663.307 220.291 657.307C216.691 651.307 213.791 644.907 211.691 638.407C207.491 625.307 206.391 611.707 207.891 599.007C209.291 586.207 213.191 574.207 218.691 563.307C224.191 552.507 231.291 542.907 239.291 534.607C243.291 530.507 247.591 526.707 251.991 523.207C256.391 519.707 260.791 516.707 265.091 513.907C273.791 508.307 282.091 503.507 289.891 498.707C293.791 496.307 297.391 493.907 300.891 491.407C304.291 488.907 307.491 486.307 310.291 483.607C315.891 478.207 319.791 472.307 321.691 465.407C323.691 458.507 323.491 450.407 321.891 442.107V441.907C320.691 436.207 324.391 430.607 330.191 429.407C335.391 428.307 340.591 431.307 342.291 436.207C344.091 441.307 345.591 446.607 346.391 452.307C346.791 455.107 347.091 458.007 347.091 461.007C347.191 463.907 346.991 466.907 346.591 469.907C346.391 471.707 346.091 473.507 345.691 475.307C344.791 479.507 343.491 483.607 341.691 487.507C339.191 493.107 336.091 498.107 332.591 502.707C329.091 507.307 325.291 511.407 321.491 515.207C317.591 519.007 313.691 522.407 309.791 525.707C301.991 532.307 294.391 538.207 287.691 544.107C284.291 547.007 281.191 550.007 278.391 552.907C275.691 555.807 273.191 558.807 270.891 562.007C266.391 568.307 262.991 575.007 260.791 581.807C258.591 588.607 257.691 595.507 258.091 601.907C258.391 608.307 260.091 614.207 262.691 619.107C263.991 621.607 265.591 623.807 267.291 625.707C269.091 627.707 270.991 629.407 273.191 630.907C274.291 631.707 275.391 632.407 276.591 633.007C276.891 633.207 277.191 633.307 277.491 633.507C277.791 633.707 278.091 633.807 278.391 634.007L280.591 635.007C283.791 636.607 287.091 637.907 290.291 638.907C303.191 643.107 315.791 643.207 328.691 639.907C335.091 638.307 341.591 635.807 347.991 632.607C354.391 629.407 360.791 625.407 366.891 620.907C373.091 616.407 378.991 611.307 384.691 605.907C385.191 605.407 385.791 604.807 386.291 604.307C388.491 602.107 390.691 599.807 392.791 597.507C395.391 594.707 397.791 591.707 399.891 589.007C414.591 569.607 442.291 565.807 461.691 580.507C464.091 582.407 466.291 584.407 468.291 586.607L472.791 580.707C492.991 554.207 530.891 549.007 557.391 569.307C563.091 573.607 567.691 578.707 571.391 584.407C581.491 577.407 594.391 574.707 607.191 578.007H607.091C606.991 578.007 606.991 578.007 606.991 578.007C606.891 578.007 606.991 578.007 606.991 578.007C606.991 578.007 606.991 578.007 607.091 578.007C607.091 578.007 607.191 578.007 607.191 578.107C607.391 578.207 607.591 578.307 607.891 578.407C608.391 578.607 609.091 578.807 609.691 579.007C610.991 579.407 612.391 579.707 613.891 580.007C616.791 580.507 619.691 580.907 622.591 581.007C628.291 581.307 633.591 580.707 638.291 579.407C642.991 578.107 647.091 576.107 651.191 572.907C653.191 571.307 655.191 569.407 657.091 567.207C658.991 565.007 660.791 562.407 662.491 559.607C665.891 554.007 668.791 547.107 671.191 539.607L671.991 536.707C672.091 536.207 672.291 535.707 672.391 535.207L672.791 533.707L673.191 532.207L673.591 530.707C673.791 529.707 674.091 528.707 674.291 527.607C675.191 523.507 675.991 519.407 676.691 515.207C677.991 506.807 678.691 498.307 678.991 489.507C679.191 480.707 678.991 471.807 678.391 462.607C677.791 453.407 676.791 444.007 675.691 434.307C674.591 424.607 673.291 414.507 672.491 403.907C672.091 398.607 671.791 393.107 671.791 387.407C671.791 384.607 671.891 381.707 671.991 378.707C672.191 375.707 672.391 372.807 672.791 369.707C673.591 363.707 674.891 357.407 676.991 351.207C678.091 348.107 679.291 345.107 680.791 342.107C681.491 340.607 682.291 339.207 683.091 337.707C683.491 337.007 683.891 336.307 684.391 335.607C684.791 334.907 685.291 334.207 685.691 333.507C689.291 328.007 693.591 323.107 698.091 319.007L699.791 317.407C700.391 316.907 700.991 316.407 701.491 315.907L703.291 314.507L705.091 313.107C705.691 312.707 706.291 312.207 706.891 311.807L708.691 310.607L712.191 308.207L715.891 306.007L717.691 304.907L719.591 303.907C720.891 303.207 722.191 302.507 723.491 301.907L727.491 300.107C732.991 297.807 738.791 295.907 744.891 294.807C750.991 293.707 757.391 293.307 763.591 294.007C769.891 294.607 775.991 296.307 781.591 298.607C787.291 301.007 792.391 304.107 796.991 307.707C799.291 309.507 801.491 311.507 803.491 313.507C804.491 314.507 805.491 315.607 806.491 316.707C806.991 317.307 807.491 317.807 807.991 318.407C808.191 318.707 808.491 319.007 808.691 319.307L809.591 320.507C813.191 325.107 812.391 331.707 807.791 335.307C803.191 338.907 796.591 338.107 792.991 333.507C793.091 333.607 792.991 333.507 792.891 333.407L792.691 333.207L792.191 332.807C791.891 332.507 791.491 332.207 791.091 331.907C790.291 331.307 789.591 330.607 788.791 330.007C787.191 328.807 785.491 327.707 783.791 326.707C780.291 324.707 776.691 323.207 773.091 322.307C765.891 320.507 758.691 320.907 751.791 323.307C750.391 323.807 748.991 324.307 747.691 325.007C745.691 325.907 743.691 327.007 741.691 328.207L739.191 329.807C738.391 330.407 737.591 331.007 736.791 331.607L735.591 332.507L734.391 333.507L731.991 335.407L729.691 337.507L728.591 338.607C728.191 339.007 727.891 339.307 727.491 339.607L726.491 340.607L725.591 341.707C725.291 342.107 724.891 342.407 724.691 342.807L723.791 343.907C721.491 346.807 719.691 349.707 718.291 352.707C718.091 353.107 717.991 353.507 717.791 353.807L717.291 354.907C717.091 355.707 716.691 356.407 716.491 357.207C715.991 358.707 715.691 360.407 715.391 362.007C714.791 365.307 714.591 368.807 714.691 372.507C714.691 374.407 714.891 376.307 714.991 378.307C715.191 380.307 715.391 382.307 715.791 384.407C716.391 388.507 717.191 392.807 718.191 397.207C720.191 406.007 722.691 415.307 725.191 424.807C727.691 434.407 730.191 444.307 732.391 454.607C734.591 464.907 736.391 475.507 737.691 486.307C738.891 497.207 739.591 508.307 739.491 519.507C739.391 525.107 739.191 530.807 738.791 536.407C738.691 537.807 738.591 539.207 738.391 540.607L738.191 542.707L737.991 544.807L737.791 546.907C737.691 547.607 737.591 548.307 737.491 549.007L736.891 553.407C734.991 565.107 732.091 577.207 727.191 589.307C724.691 595.407 721.791 601.507 718.191 607.407C714.591 613.407 710.491 619.207 705.691 624.707C700.891 630.207 695.391 635.307 689.491 639.907C686.491 642.207 683.491 644.307 680.291 646.307C677.091 648.307 673.791 650.107 670.491 651.707C663.791 655.007 656.891 657.607 649.991 659.607C643.391 661.507 636.791 662.807 630.291 663.707C632.391 665.207 634.391 666.607 636.491 667.907C641.691 671.007 646.891 673.307 652.291 674.707L654.291 675.207C654.991 675.307 655.691 675.507 656.291 675.607C656.991 675.707 657.691 675.807 658.391 675.907L659.391 676.007L659.891 676.107H660.491C663.691 676.307 666.791 676.407 669.691 676.207C675.491 675.807 680.591 674.707 685.591 672.407C688.091 671.307 690.491 669.807 692.991 668.007C695.491 666.207 697.991 664.007 700.491 661.507C705.491 656.407 710.491 650.007 715.691 642.707C720.891 635.407 726.291 627.307 732.991 619.007C736.291 614.807 739.991 610.607 744.191 606.507C748.391 602.407 753.191 598.507 758.491 595.107C763.891 591.707 769.791 588.907 775.891 587.107C778.991 586.207 781.991 585.507 785.091 585.007C788.191 584.507 791.191 584.207 794.191 584.107C797.191 584.007 800.091 584.007 802.991 584.207C805.791 584.407 808.691 584.607 811.591 585.107C817.391 586.007 823.291 587.507 829.191 590.007C832.091 591.307 834.991 592.807 837.791 594.707C840.591 596.607 843.191 598.707 845.591 601.107C850.391 606.007 854.091 611.907 856.291 618.107C858.291 624.407 859.191 630.707 859.191 636.807Z"
                  fill="#FF9900"/>
        </g>
        <path id="Vector_5" opacity="0.3"
              d="M672.291 850.407C671.591 859.807 664.291 870.107 655.491 874.707C658.491 871.207 660.791 867.507 662.391 863.707C664.891 857.707 665.691 851.707 664.791 846.107C663.991 840.407 661.591 835.107 657.891 830.107C655.991 827.607 653.891 825.207 651.291 823.007C648.791 820.807 645.991 818.607 642.991 816.707C636.991 812.807 629.991 809.507 622.491 806.907C618.791 805.607 614.891 804.407 610.891 803.407C606.891 802.407 602.891 801.607 598.691 800.907C594.591 800.207 590.291 799.607 586.091 799.207L582.891 798.907L582.091 798.807L580.891 798.707L578.491 798.407C576.891 798.207 575.291 797.907 573.791 797.707L571.391 797.307L568.991 796.807C562.591 795.507 556.191 793.707 549.891 791.307C543.491 789.007 537.291 786.007 531.191 782.607C525.191 779.107 519.291 775.107 513.991 770.607C508.591 766.107 503.591 761.207 498.991 756.007C494.491 750.807 490.391 745.307 486.691 739.607C485.391 737.607 484.691 736.107 482.491 732.707C540.591 795.207 586.191 774.407 648.491 804.407C672.591 815.507 673.591 833.207 672.291 850.407Z"
              fill="#FF9900"/>
        <path id="Vector_6" opacity="0.3"
              d="M385.791 610.507C386.391 638.107 355.191 670.707 288.691 658.307C248.291 650.707 228.591 608.807 248.191 571.707C262.291 545.107 292.791 529.507 314.291 509.807C325.191 499.807 338.291 488.907 345.691 475.307C344.791 479.507 343.491 483.607 341.691 487.507C339.191 493.107 336.091 498.107 332.591 502.707C329.091 507.307 325.291 511.407 321.491 515.207C317.591 519.007 313.691 522.407 309.791 525.707C301.991 532.307 294.391 538.207 287.691 544.107C284.291 547.007 281.191 550.007 278.391 552.907C275.691 555.807 273.191 558.807 270.891 562.007C266.391 568.307 262.991 575.007 260.791 581.807C258.591 588.607 257.691 595.507 258.091 601.907C258.391 608.307 260.091 614.207 262.691 619.107C263.991 621.607 265.591 623.807 267.291 625.707C269.091 627.707 270.991 629.407 273.191 630.907C274.291 631.707 275.391 632.407 276.591 633.007C276.891 633.207 277.191 633.307 277.491 633.507C277.791 633.707 278.091 633.807 278.391 634.007L280.591 635.007C283.791 636.607 287.091 637.907 290.291 638.907C303.191 643.107 315.791 643.207 328.691 639.907C335.091 638.307 341.591 635.807 347.991 632.607C354.391 629.407 360.791 625.407 366.891 620.907C373.091 616.407 378.991 611.307 384.691 605.907C385.191 605.407 385.791 604.807 386.291 604.307C386.491 606.407 385.691 608.307 385.791 610.507Z"
              fill="#FF9900"/>
        <path id="Vector_7"
              d="M484.591 236.307C383.291 241.107 336.191 333.407 351.691 409.607C361.691 458.607 377.991 570.007 384.691 605.907C394.391 657.807 456.191 645.207 506.791 642.707C545.991 640.807 610.891 627.207 628.791 587.607C633.091 578.007 643.791 425.107 643.791 390.507C643.791 302.407 603.691 230.707 484.591 236.307Z"
              fill="url(#paint0_radial_5_2)"/>
        <g id="Group_3">
            <path id="Vector_8"
                  d="M441.525 525.468C450.739 525.062 457.74 514.088 457.161 500.957C456.583 487.826 448.645 477.51 439.431 477.915C430.217 478.321 423.217 489.295 423.795 502.426C424.373 515.557 432.311 525.873 441.525 525.468Z"
                  fill="#1D1D1B"/>
            <path id="Vector_9"
                  d="M433.265 499.984C435.141 499.901 436.532 496.882 436.372 493.241C436.211 489.599 434.561 486.714 432.685 486.797C430.809 486.879 429.418 489.898 429.578 493.54C429.739 497.181 431.389 500.066 433.265 499.984Z"
                  fill="white"/>
        </g>
        <g id="Group_4">
            <path id="Vector_10"
                  d="M577.818 502.169C587.032 501.764 594.032 490.79 593.454 477.659C592.876 464.527 584.938 454.211 575.724 454.617C566.51 455.022 559.509 465.996 560.088 479.128C560.666 492.259 568.604 502.575 577.818 502.169Z"
                  fill="#1D1D1B"/>
            <path id="Vector_11"
                  d="M569.562 476.785C571.438 476.703 572.829 473.684 572.669 470.042C572.508 466.401 570.858 463.516 568.982 463.599C567.106 463.681 565.715 466.7 565.876 470.341C566.036 473.983 567.687 476.868 569.562 476.785Z"
                  fill="white"/>
        </g>
        <g id="Group_5">
            <path id="Vector_12"
                  d="M818.591 825.207C815.491 838.207 795.091 844.807 782.991 844.107C772.691 843.507 759.991 837.107 752.691 829.507C751.991 828.807 751.391 828.107 750.791 827.407C735.991 810.407 742.391 790.307 742.391 790.307C742.391 790.307 772.791 773.707 779.391 770.907C781.591 769.907 784.091 769.307 786.691 769.007C794.891 768.207 804.291 771.507 811.391 781.307C820.891 794.907 822.491 808.507 818.591 825.207Z"
                  fill="#B3B3B3"/>
            <path id="Vector_13"
                  d="M791.191 819.107C790.891 819.207 771.591 824.507 752.591 829.607C751.891 828.907 751.291 828.207 750.691 827.507C735.891 810.507 742.291 790.407 742.291 790.407C742.291 790.407 772.691 773.807 779.291 771.007C781.491 770.007 783.991 769.407 786.591 769.107L785.291 770.907C779.291 772.907 773.391 776.807 767.691 784.907C763.691 790.907 763.191 798.007 766.891 806.507L780.791 818.707L791.191 819.107Z"
                  fill="#CCCCCC"/>
            <path id="Vector_14"
                  d="M805.491 841.307C778.591 850.807 750.591 858.407 730.891 861.807C698.691 867.307 673.591 873.607 646.191 880.707C632.691 884.207 618.691 887.807 602.991 891.607C583.891 896.307 553.691 907.007 534.491 909.707C516.491 912.207 506.291 898.407 502.691 881.707C497.891 859.807 504.291 832.907 518.891 831.007C596.391 820.707 645.691 801.807 682.691 788.607C702.591 781.507 751.991 763.007 752.491 763.907C741.491 779.307 739.391 800.107 748.091 818.607C750.491 823.707 753.991 828.607 758.391 832.707C769.091 842.607 785.291 847.907 805.491 841.307Z"
                  fill="#E6E6E6"/>
            <path id="Vector_15"
                  d="M805.491 841.307C778.591 850.807 750.591 858.407 730.891 861.807C698.691 867.307 673.591 873.607 646.191 880.707C632.691 884.207 618.691 887.807 602.991 891.607C583.891 896.307 553.691 907.007 534.491 909.707C516.491 912.207 506.291 898.407 502.691 881.707C525.091 896.107 571.991 874.807 641.091 860.307C704.191 847.107 741.591 835.807 758.491 832.707C785.191 848.107 805.491 841.307 805.491 841.307Z"
                  fill="#F2F2F2"/>
            <g id="Group_6">
                <path id="Vector_16"
                      d="M818.091 830.807C819.191 829.207 820.191 827.507 821.091 825.607C826.491 813.907 824.991 797.007 817.491 784.507C811.491 774.607 802.691 768.807 792.491 768.207C782.791 767.707 772.891 773.007 767.291 781.907C761.991 790.207 761.491 800.007 765.891 808.107C770.291 816.207 777.091 820.807 784.291 820.707C789.991 820.607 794.791 817.907 797.091 813.107C799.491 808.307 798.491 803.007 794.691 797.907L792.291 799.507C795.091 803.307 795.391 808.307 793.791 811.507C792.191 814.707 788.191 816.107 784.291 816.207C778.691 816.307 773.391 812.607 769.791 805.907C766.091 799.107 766.591 791.207 770.991 784.107C775.791 776.607 784.091 772.007 792.191 772.507C800.791 773.007 808.391 778.007 813.691 786.707C820.491 798.007 821.891 813.207 817.091 823.707C812.491 833.807 803.991 837.807 797.691 839.407C786.491 842.207 773.091 839.507 763.691 832.507C754.391 825.607 746.491 813.907 744.791 800.107C743.191 786.907 747.491 773.407 754.191 765.207L752.491 763.807C744.991 773.107 740.091 785.307 741.891 799.907C743.791 815.107 750.791 828.307 761.191 836.007C771.791 843.907 786.191 846.907 798.891 843.607C806.991 841.607 813.591 837.107 818.091 830.807Z"
                      fill="#E8E8E8"/>
            </g>
        </g>
        <path id="Vector_17" opacity="0.3"
              d="M820.191 662.507C821.991 661.007 824.291 660.007 826.891 660.007C826.891 659.907 826.791 659.907 826.891 659.807C826.991 659.707 827.091 659.507 827.391 659.307C827.891 658.807 828.591 657.907 829.191 656.807C830.491 654.507 831.591 651.307 832.191 648.007C832.691 644.707 832.791 641.307 832.291 638.107C831.791 634.907 830.891 632.007 829.491 629.707C828.091 627.307 826.491 625.507 824.491 624.107C822.491 622.707 820.191 621.707 817.391 621.007C814.591 620.307 811.491 619.907 808.091 619.907C806.391 619.907 804.591 620.007 802.791 620.207C800.991 620.407 799.391 620.607 797.791 621.007C794.591 621.707 791.691 622.707 789.091 624.107C786.491 625.407 784.291 627.107 782.091 629.007C779.891 631.007 777.891 633.307 775.891 636.107C773.891 638.807 771.891 642.007 769.991 645.407C766.091 652.307 762.391 660.207 758.091 668.807C753.791 677.407 748.991 686.607 742.391 696.007C739.091 700.707 735.391 705.307 731.091 709.807C726.791 714.307 721.991 718.607 716.691 722.407C711.391 726.207 705.591 729.507 699.591 732.207C693.591 734.907 687.391 737.007 681.291 738.507C675.091 740.107 668.991 741.107 662.991 741.707L661.891 741.807H660.591L658.191 742.007C656.591 742.107 654.991 742.107 653.291 742.207C651.691 742.207 650.091 742.207 648.391 742.207C646.791 742.207 645.191 742.107 643.491 742.007C630.491 741.107 617.791 737.907 606.191 733.407C598.391 730.307 590.991 726.607 584.091 722.507C582.691 721.307 581.591 720.007 580.491 718.707C611.691 733.507 643.391 741.607 674.691 727.007C701.591 714.507 719.591 695.407 750.191 640.407C763.491 616.507 787.891 605.407 815.491 609.607C844.491 613.807 854.091 665.507 820.191 662.507Z"
              fill="#FF9900"/>
        <g id="Group_7">
            <path id="Vector_18"
                  d="M852.391 564.907L812.491 719.107C808.491 721.107 803.591 721.707 798.691 721.407C796.091 721.207 793.391 720.707 790.791 720.007C783.891 718.007 777.591 714.107 773.891 709.107L813.791 554.907L837.691 561.107L852.191 564.907H852.391Z"
                  fill="#0AA49A"/>
            <path id="Vector_19"
                  d="M852.291 564.907C848.591 566.807 842.491 567.007 836.191 566.107C826.691 564.707 816.691 560.507 813.791 554.907L828.591 537.507L834.191 531.007L843.391 520.207L843.791 522.407L846.191 534.107L847.891 542.507L852.391 564.707L852.291 564.907Z"
                  fill="#FFCA4D"/>
            <path id="Vector_20"
                  d="M846.191 534.207L842.191 533.107L834.191 531.107L843.391 520.207L843.791 522.507L846.191 534.207Z"
                  fill="#0AA49A"/>
            <path id="Vector_21"
                  d="M852.291 564.907C848.591 566.807 842.491 567.007 836.191 566.107L837.691 561.007L843.691 522.407L846.091 534.107L847.791 542.507L852.291 564.907Z"
                  fill="#FFDA82"/>
            <path id="Vector_22"
                  d="M852.391 564.907L812.491 719.107C808.491 721.107 803.591 721.707 798.691 721.407L836.191 566.307C842.491 567.107 848.591 566.807 852.391 564.907H852.291H852.391Z"
                  fill="#0AA49A"/>
            <path id="Vector_23" d="M846.191 534.207L842.191 533.107L843.791 522.507L846.191 534.207Z" fill="#0AA49A"/>
        </g>
        <path id="Vector_24" opacity="0.3"
              d="M405.191 750.507C398.991 756.207 392.691 761.607 386.691 766.507C377.791 773.807 368.391 780.407 358.391 786.207C328.991 803.007 294.791 810.907 261.491 802.207C235.391 795.407 214.191 779.407 195.591 760.407C181.791 746.307 137.091 676.707 116.791 707.007C114.391 710.607 114.391 710.607 114.391 710.607C108.791 715.907 101.391 716.607 98.7908 716.507C101.991 687.907 133.291 677.507 156.791 692.907C167.891 700.207 178.191 709.407 185.691 720.307C195.791 734.907 207.391 745.507 220.791 757.107C231.891 766.707 248.991 786.907 290.191 785.207C339.991 783.207 357.391 772.007 405.191 750.507Z"
              fill="#FF9900"/>
        <path id="Vector_25" opacity="0.3"
              d="M631.591 415.107C632.191 464.207 630.691 497.207 623.691 544.607C620.591 565.307 599.791 561.107 603.591 544.607C610.391 515.207 608.491 446.407 604.191 409.707C602.491 395.607 597.791 351.507 589.991 313.707C587.191 300.007 606.291 293.907 611.991 306.607C629.091 344.107 631.291 393.307 631.591 415.107Z"
              fill="#FF9900"/>
        <path id="Vector_26"
              d="M20.0908 734.207L100.291 927.907C103.291 935.107 111.591 938.607 118.791 935.607L244.691 883.507C251.891 880.507 255.391 872.207 252.391 865.007L172.191 671.307C169.191 664.107 160.891 660.607 153.691 663.607L27.6908 715.607C20.4908 718.607 17.0908 726.907 20.0908 734.207ZM133.791 704.907L71.1908 730.807C66.7908 732.607 61.5908 730.807 59.5908 726.507C57.4908 721.907 59.5908 716.507 64.1908 714.607L126.791 688.707C131.191 686.907 136.391 688.707 138.391 693.007C140.591 697.507 138.391 702.907 133.791 704.907Z"
              fill="#0AA49A"/>
        <path id="Vector_27" d="M50.9908 751.507L102.191 877.607L214.391 846.307L154.891 709.707L50.9908 751.507Z"
              fill="#F2F2F2"/>
        <path id="Vector_28" opacity="0.3"
              d="M475.191 775.907C475.091 778.807 475.191 781.707 475.291 784.407L475.391 786.507L475.591 788.507L476.291 794.207C477.291 803.407 477.591 812.807 477.091 822.307C476.491 831.807 474.991 841.407 472.391 850.907C469.791 860.307 465.991 869.607 460.991 878.107C455.991 886.707 449.791 894.507 442.691 901.307C435.591 908.007 427.491 913.707 418.791 917.907C410.091 922.207 400.891 925.107 391.291 926.407C382.591 927.607 373.591 927.507 364.791 925.707C381.891 927.707 428.291 903.307 437.891 889.907C462.391 855.907 457.291 822.907 462.991 783.307C465.891 763.607 470.791 747.807 482.791 732.307C482.091 734.707 481.391 737.007 480.791 739.407C477.491 751.807 475.491 764.207 475.191 775.907Z"
              fill="#FF9900"/>
        <path id="Vector_29" opacity="0.3"
              d="M715.191 362.307C714.591 365.607 714.391 369.107 714.491 372.807C714.491 374.707 714.691 376.607 714.791 378.607C714.991 380.607 715.191 382.607 715.591 384.707C716.191 388.807 716.991 393.107 717.991 397.507C719.991 406.307 722.491 415.607 724.991 425.107C727.491 434.707 729.991 444.607 732.191 454.907C734.391 465.207 736.191 475.807 737.491 486.607C738.691 497.507 739.391 508.607 739.291 519.807C739.191 525.407 738.991 531.107 738.591 536.707C738.491 538.107 738.391 539.507 738.191 540.907L737.991 543.007L737.791 545.107L737.591 547.207C737.491 547.907 737.391 548.607 737.291 549.307L736.691 553.707C734.791 565.407 731.891 577.507 726.991 589.607C724.491 595.707 721.591 601.807 717.991 607.707C714.391 613.707 710.291 619.507 705.491 625.007C700.691 630.507 695.191 635.607 689.291 640.207C686.291 642.507 683.291 644.607 680.091 646.607C676.891 648.607 673.591 650.407 670.291 652.007C663.591 655.307 656.691 657.907 649.791 659.907C643.191 661.807 636.591 663.107 630.091 664.007C662.991 650.707 681.391 633.307 697.791 610.307C723.091 574.807 723.291 505.707 714.591 442.007C711.291 418.207 674.691 343.907 747.691 325.007C745.691 325.907 743.691 327.007 741.691 328.207L739.191 329.807C738.391 330.407 737.591 331.007 736.791 331.607L735.591 332.507L734.391 333.507L731.991 335.407L729.691 337.507L728.591 338.607C728.191 339.007 727.891 339.307 727.491 339.607L726.491 340.607L725.591 341.707C725.291 342.107 724.891 342.407 724.691 342.807L723.791 343.907C721.491 346.807 719.691 349.707 718.291 352.707C718.091 353.107 717.991 353.507 717.791 353.807L717.291 354.907C717.091 355.707 716.691 356.407 716.491 357.207C715.791 359.007 715.491 360.707 715.191 362.307Z"
              fill="#FF9900"/>
        <g id="Group_8">
            <path id="Vector_30" opacity="0.7"
                  d="M577.891 539.007L615.791 431.307C615.791 431.307 641.791 423.007 650.291 437.407C661.791 457.007 658.091 508.907 652.291 514.907C635.891 531.607 603.491 535.507 577.891 539.007Z"
                  fill="white"/>
            <path id="Vector_31" opacity="0.7"
                  d="M408.891 580.007L446.991 467.907C446.991 467.907 354.491 475.207 348.591 497.307C342.691 519.307 369.491 563.207 372.291 571.107C375.191 578.907 408.891 580.007 408.891 580.007Z"
                  fill="white"/>
            <g id="Group_9">
                <path id="Vector_32"
                      d="M711.891 469.907C710.391 470.407 708.791 470.307 707.291 469.507C704.591 468.007 703.691 464.607 705.291 461.907C707.191 458.607 711.591 454.407 708.891 445.207C707.691 441.107 703.691 438.607 699.091 436.707C694.391 434.707 679.091 439.007 660.891 463.607C659.991 464.907 657.991 471.307 657.691 471.707C655.691 474.107 651.891 456.207 652.291 455.507C659.091 445.507 681.191 419.607 702.091 428.507C709.591 431.707 714.791 437.107 717.191 444.207C720.191 453.207 717.891 462.407 714.891 467.507C714.191 468.607 713.091 469.507 711.891 469.907Z"
                      fill="#088078"/>
            </g>
            <path id="Vector_33"
                  d="M581.291 431.907C551.191 438.207 531.491 447.107 518.891 455.007C505.591 463.407 489.591 466.707 473.991 464.407C459.291 462.207 437.691 461.907 407.591 468.107C341.491 481.907 332.591 489.407 336.991 502.107C343.891 522.407 359.291 569.907 375.191 578.907C391.091 587.907 475.491 569.907 485.291 556.707C502.191 534.107 490.791 502.907 504.491 498.307C518.891 497.107 520.891 530.207 545.391 544.107C559.691 552.207 644.191 535.007 655.191 520.407C666.191 505.807 661.291 456.107 659.491 434.707C658.491 421.407 647.391 418.107 581.291 431.907ZM474.591 550.107C466.391 564.107 395.791 573.807 383.691 569.307C371.591 564.807 351.091 520.007 351.691 500.207C352.291 482.207 464.191 465.007 477.591 478.607C490.991 492.207 482.791 536.107 474.591 550.107ZM644.991 516.207C635.791 525.107 564.491 542.307 551.391 532.707C538.291 523.207 514.591 487.307 521.391 469.507C528.191 451.707 637.691 422.707 645.391 439.007C653.791 456.807 654.191 507.207 644.991 516.207Z"
                  fill="#0AA49A"/>
        </g>
        <path id="Vector_34" d="M108.191 853.707L185.091 854.507L102.191 877.607L108.191 853.707Z" fill="#B3B3B3"/>
        <g id="Group_10">
            <path id="Vector_35" opacity="0.25"
                  d="M406.091 280.907C400.091 285.007 384.991 300.207 395.891 306.507C403.391 310.807 417.791 293.307 425.191 289.607C431.991 286.207 451.291 277.107 441.491 268.607C432.891 261.107 416.391 274.607 409.291 278.807L406.091 280.907Z"
                  fill="#FF9900"/>
            <path id="Vector_36" opacity="0.25"
                  d="M440.491 302.407C445.891 306.207 465.491 306.507 470.491 305.707C480.691 304.207 493.991 294.407 493.691 283.407C492.891 255.607 451.291 283.107 440.691 287.807C431.191 292.107 433.291 295.907 440.491 302.407Z"
                  fill="#FF9900"/>
            <path id="Vector_37" opacity="0.25"
                  d="M416.691 307.907C407.091 309.107 397.091 322.207 394.091 329.807C390.091 340.207 389.191 364.007 406.591 354.607C413.091 351.107 416.891 344.807 422.991 340.807C429.091 336.807 434.191 337.107 441.291 336.407C457.191 334.907 464.091 317.107 447.491 310.107C443.191 308.307 436.591 308.107 432.091 307.307C428.591 306.707 422.791 307.107 416.691 307.907Z"
                  fill="#FF9900"/>
            <path id="Vector_38" opacity="0.25"
                  d="M478.291 310.607C472.991 310.707 462.391 313.307 464.491 321.007C466.591 328.507 476.491 323.207 480.991 321.007C484.691 319.207 497.391 316.707 494.791 311.807C492.291 307.107 483.991 308.007 480.491 309.507L478.291 310.607Z"
                  fill="#FF9900"/>
        </g>
        <path id="Vector_39"
              d="M117.891 754.307C114.391 757.707 108.391 758.807 102.791 754.707C96.4908 750.107 91.6908 744.207 88.9908 736.407C87.3908 731.907 86.7908 724.507 86.3908 721.607C87.9908 720.907 93.1908 718.807 98.8908 716.407C104.991 713.907 111.791 711.107 115.191 709.607C110.491 718.707 109.391 730.907 116.891 738.707C122.491 744.307 121.591 750.707 117.891 754.307Z"
              fill="#FF9900"/>
        <path id="Vector_40"
              d="M859.191 636.807C859.091 642.907 858.091 648.707 856.291 654.307C855.391 657.107 854.191 659.907 852.791 662.607C851.391 665.307 849.691 667.907 847.591 670.507C845.491 673.007 842.891 675.507 839.591 677.607C837.891 678.607 835.991 679.507 833.891 680.207C831.791 680.907 829.391 681.207 827.091 681.107C821.291 681.207 816.391 676.507 816.391 670.607C816.391 666.507 818.291 664.307 820.691 662.407C821.591 661.707 822.491 661.107 823.491 660.507C826.391 658.607 829.491 656.407 831.091 652.107C831.091 652.007 831.191 651.907 831.191 651.707C831.591 650.507 831.891 649.207 832.091 647.707C832.291 645.907 832.491 644.107 832.491 642.307V642.207C832.491 641.907 832.491 641.707 832.491 641.407L836.791 625.007L843.391 599.407C843.991 600.007 844.691 600.607 845.291 601.207C850.091 606.107 853.791 612.007 855.991 618.207C858.291 624.407 859.191 630.707 859.191 636.807Z"
              fill="#FF9900"/>
        <path id="Vector_41"
              d="M707.391 866.207C706.391 869.307 705.191 872.307 703.891 875.207C702.391 878.307 700.791 881.307 698.991 884.107C697.191 886.907 695.291 889.607 693.191 892.107C692.191 893.407 691.091 894.607 689.991 895.807L688.291 897.607L687.491 898.507L686.591 899.307L684.891 901.007L683.091 902.607L682.191 903.407L681.291 904.207L679.491 905.707C676.991 907.607 674.491 909.407 671.891 911.007C669.291 912.707 666.691 914.107 663.991 915.507C660.991 917.107 657.791 918.407 654.491 919.507C647.891 921.707 640.891 922.807 633.991 922.607C627.091 922.507 620.491 921.107 614.391 918.907C608.291 916.707 602.691 913.707 597.591 910.007C592.491 906.407 587.991 902.207 584.091 897.507C580.191 892.807 576.891 887.607 574.291 882.007C571.691 876.407 569.991 870.307 569.391 863.807C568.791 857.407 569.491 850.707 571.591 844.507C573.491 839.007 579.491 836.107 585.091 838.007C587.091 838.707 588.791 840.007 589.991 841.607C591.791 843.907 592.491 846.907 591.991 849.807L591.891 850.407C591.291 853.707 591.491 857.107 592.291 860.407C593.191 863.807 594.691 867.107 596.691 870.207C600.691 876.507 606.791 881.807 613.391 885.107C616.691 886.807 620.091 888.007 623.391 888.607C626.691 889.307 629.991 889.307 632.991 888.907C635.991 888.507 638.791 887.507 641.491 886.107C642.791 885.407 644.091 884.607 645.291 883.707C646.891 882.507 648.391 881.407 649.791 880.107C650.091 879.807 650.391 879.507 650.691 879.307L671.091 874.507L707.391 866.207Z"
              fill="#FF9900"/>
        <path id="Vector_42" opacity="0.3"
              d="M671.291 874.707C662.091 895.407 639.391 908.507 614.891 899.607C591.691 891.207 585.491 862.607 590.091 841.607C591.891 843.907 592.591 846.907 592.091 849.807L591.991 850.407C591.391 853.707 591.591 857.107 592.391 860.407C593.291 863.807 594.791 867.107 596.791 870.207C600.791 876.507 606.891 881.807 613.491 885.107C616.791 886.807 620.191 888.007 623.491 888.607C626.791 889.307 630.091 889.307 633.091 888.907C636.091 888.507 638.891 887.507 641.591 886.107C642.891 885.407 644.191 884.607 645.391 883.707C646.991 882.507 648.491 881.407 649.891 880.107C650.191 879.807 650.491 879.507 650.791 879.307L671.291 874.707Z"
              fill="#FF9900"/>
        <path id="Vector_43" opacity="0.29"
              d="M117.891 754.307C107.791 749.207 98.9908 731.107 98.8908 716.507C104.991 714.007 111.791 711.207 115.191 709.707C110.491 718.807 109.391 731.007 116.891 738.807C122.491 744.307 121.591 750.707 117.891 754.307Z"
              fill="#FF9900"/>
        <path id="Vector_44" opacity="0.31"
              d="M820.691 662.507C821.591 661.807 822.491 661.207 823.491 660.607C826.391 658.707 829.491 656.507 831.091 652.207C831.091 652.107 831.191 652.007 831.191 651.807C831.591 650.507 831.891 649.207 832.091 647.807C832.391 646.007 832.491 644.207 832.491 642.407V642.307C832.491 642.007 832.491 641.807 832.491 641.507L836.791 625.107C846.091 641.507 843.191 664.207 820.691 662.507Z"
              fill="#FF9900"/>
    </g>

    <g id="bubble1" transform="scale(0)">
        <path d="M19 38C29.4934 38 38 29.4934 38 19C38 8.50659 29.4934 0 19 0C8.50659 0 0 8.50659 0 19C0 29.4934 8.50659 38 19 38Z"
              fill="#74E9E4"/>
        <path d="M10.8919 13.1679C12.1817 10.4791 12.0568 7.73773 10.6127 7.04503C9.1687 6.35232 6.95245 7.97057 5.66258 10.6594C4.37272 13.3483 4.4977 16.0896 5.94172 16.7823C7.38575 17.475 9.60199 15.8568 10.8919 13.1679Z"
              fill="#D6FFFA"/>
        <animateMotion
                dur="3s"
                begin="0s"
                fill="freeze"
                keyTimes="0; 1"
                keyPoints="0; 1"
                keySplines="0.3 0.5 0.5 0.7"
                calcMode="spline"
                repeatCount="indefinite">
            <mpath xlink:href="#bubblePath1"/>
        </animateMotion>
        <animateTransform
                attributeName="transform"
                dur="3s"
                begin="0s"
                type="scale"
                fill="freeze"
                from="0 0"
                to="1 1"
                keyTimes="0; 1"
                keySplines="0 0.8 0.1 0.8"
                calcMode="spline"
                repeatCount="indefinite"/>
        <animate
                dur="3s"
                begin="0s"
                attributeName="opacity"
                from="0.9" to="0"
                keyTimes="0; 1"
                keySplines="1 0 0.8 0"
                calcMode="spline"
                repeatCount="indefinite"/>
    </g>

    <g id="bubble2" transform="scale(0)">
        <path d="M46.6 93.2C72.3365 93.2 93.2 72.3365 93.2 46.6C93.2 20.8635 72.3365 0 46.6 0C20.8635 0 0 20.8635 0 46.6C0 72.3365 20.8635 93.2 46.6 93.2Z"
              fill="#74E9E4"/>
        <path d="M26.8321 32.4188C30.009 25.7962 29.678 19.0333 26.0928 17.3135C22.5076 15.5937 17.0259 19.5682 13.849 26.1908C10.6722 32.8134 11.0032 39.5763 14.5883 41.2961C18.1735 43.0159 23.6552 39.0414 26.8321 32.4188Z"
              fill="#D6FFFA"/>
        <animateMotion
                dur="3s"
                begin="1s"
                fill="freeze"
                keyTimes="0; 1"
                keyPoints="0; 1"
                keySplines="0.3 0.5 0.5 0.7"
                calcMode="spline"
                repeatCount="indefinite">
            <mpath xlink:href="#bubble_2_path"/>
        </animateMotion>
        <animateTransform
                attributeName="transform"
                dur="3s"
                begin="1s"
                type="scale"
                fill="freeze"
                from="0 0"
                to="1 1"
                keyTimes="0; 1"
                keySplines="0 0.8 0.1 0.8"
                calcMode="spline"
                repeatCount="indefinite"/>
        <animate
                dur="3s"
                begin="1s"
                attributeName="opacity"
                from="0.9" to="0"
                keyTimes="0; 1"
                keySplines="1 0 0.8 0"
                calcMode="spline"
                repeatCount="indefinite"/>
    </g>

    <g id="bubble3" transform="scale(0)">
        <path d="M21.8 43.6C33.8398 43.6 43.6 33.8398 43.6 21.8C43.6 9.76018 33.8398 0 21.8 0C9.7602 0 0 9.76018 0 21.8C0 33.8398 9.7602 43.6 21.8 43.6Z"
              fill="#74E9E4"/>
        <path d="M12.516 15.1657C13.9969 12.0784 13.825 8.91736 12.132 8.10522C10.439 7.29309 7.86602 9.13743 6.38507 12.2247C4.90411 15.3119 5.07601 18.4729 6.769 19.2851C8.462 20.0972 11.035 18.2529 12.516 15.1657Z"
              fill="#D6FFFA"/>
        <animateMotion
                dur="3s"
                begin="2s"
                fill="freeze"
                keyTimes="0; 1"
                keyPoints="0; 1"
                keySplines="0.3 0.5 0.5 0.7"
                calcMode="spline"
                repeatCount="indefinite">
            <mpath xlink:href="#bubble_3_path"/>
        </animateMotion>
        <animateTransform
                attributeName="transform"
                dur="3s"
                begin="2s"
                type="scale"
                fill="freeze"
                from="0 0"
                to="1 1"
                keyTimes="0; 1"
                keySplines="0 0.8 0.1 0.8"
                calcMode="spline"
                repeatCount="indefinite"/>
        <animate
                dur="3s"
                begin="2s"
                attributeName="opacity"
                from="0.9" to="0"
                keyTimes="0; 1"
                keySplines="1 0 0.8 0"
                calcMode="spline"
                repeatCount="indefinite"/>
    </g>

    <g id="bubble4" transform="scale(0)">
        <path d="M10.6 21.2C16.4542 21.2 21.2 16.4543 21.2 10.6C21.2 4.74582 16.4542 0 10.6 0C4.74576 0 0 4.74582 0 10.6C0 16.4543 4.74576 21.2 10.6 21.2Z"
              fill="#74E9E4"/>
        <path d="M6.92965 6.41597C7.96153 5.11965 8.2376 3.62265 7.54622 3.07231C6.85485 2.52196 5.45784 3.12668 4.42596 4.423C3.39407 5.71933 3.11805 7.21636 3.80942 7.76671C4.5008 8.31705 5.89776 7.71229 6.92965 6.41597Z"
              fill="#D6FFFA"/>
        <animateMotion
                dur="3s"
                begin="0.5s"
                fill="freeze"
                keyTimes="0; 1"
                keyPoints="0; 1"
                keySplines="0.3 0.5 0.5 0.7"
                calcMode="spline"
                repeatCount="indefinite">
            <mpath xlink:href="#bubble_4_path"/>
        </animateMotion>
        <animateTransform
                attributeName="transform"
                dur="3s"
                begin="0.5s"
                type="scale"
                fill="freeze"
                from="0 0"
                to="1 1"
                keyTimes="0; 1"
                keySplines="0 0.8 0.1 0.8"
                calcMode="spline"
                repeatCount="indefinite"/>
        <animate
                dur="3s"
                begin="0.5s"
                attributeName="opacity"
                from="0.9" to="0"
                keyTimes="0; 1"
                keySplines="1 0 0.8 0"
                calcMode="spline"
                repeatCount="indefinite"/>
    </g>

    <g id="bubble5" transform="scale(0)">
        <path d="M21.8 43.6C33.8398 43.6 43.6 33.8398 43.6 21.8C43.6 9.76018 33.8398 0 21.8 0C9.76018 0 0 9.76018 0 21.8C0 33.8398 9.76018 43.6 21.8 43.6Z"
              fill="#74E9E4"/>
        <path d="M13.4191 14.2095C15.2524 11.3174 15.4529 8.15797 13.867 7.15261C12.281 6.14725 9.50911 7.67672 7.67581 10.5688C5.84251 13.4608 5.64202 16.6203 7.22798 17.6257C8.81395 18.631 11.5858 17.1015 13.4191 14.2095Z"
              fill="#D6FFFA"/>
        <animateMotion
                dur="3s"
                begin="1.5s"
                fill="freeze"
                keyTimes="0; 1"
                keyPoints="0; 1"
                keySplines="0.3 0.5 0.5 0.7"
                calcMode="spline"
                repeatCount="indefinite">
            <mpath xlink:href="#bubble_5_path"/>
        </animateMotion>
        <animateTransform
                attributeName="transform"
                dur="3s"
                begin="1.5s"
                type="scale"
                fill="freeze"
                from="0 0"
                to="1 1"
                keyTimes="0; 1"
                keySplines="0 0.8 0.1 0.8"
                calcMode="spline"
                repeatCount="indefinite"/>
        <animate
                dur="3s"
                begin="1.5s"
                attributeName="opacity"
                from="0.9" to="0"
                keyTimes="0; 1"
                keySplines="1 0 0.8 0"
                calcMode="spline"
                repeatCount="indefinite"/>
    </g>

    <g id="bubble6" transform="scale(0)">
        <path d="M32.9 65.8C51.0702 65.8 65.8 51.0701 65.8 32.9C65.8 14.7298 51.0702 0 32.9 0C14.7299 0 0 14.7298 0 32.9C0 51.0701 14.7299 65.8 32.9 65.8Z"
              fill="#74E9E4"/>
        <path d="M20.7682 20.7926C23.7512 16.5439 24.3007 11.7877 21.9956 10.1693C19.6904 8.55082 15.4035 10.683 12.4205 14.9317C9.43746 19.1804 8.88795 23.9367 11.1931 25.5552C13.4982 27.1736 17.7851 25.0413 20.7682 20.7926Z"
              fill="#D6FFFA"/>
        <animateMotion
                dur="3s"
                begin="2.5s"
                fill="freeze"
                keyTimes="0; 1"
                keyPoints="0; 1"
                keySplines="0.3 0.5 0.5 0.7"
                calcMode="spline"
                repeatCount="indefinite">
            <mpath xlink:href="#bubble_6_path"/>
        </animateMotion>
        <animateTransform
                attributeName="transform"
                dur="3s"
                begin="2.5s"
                type="scale"
                fill="freeze"
                from="0 0"
                to="1 1"
                keyTimes="0; 1"
                keySplines="0 0.8 0.1 0.8"
                calcMode="spline"
                repeatCount="indefinite"/>
        <animate
                dur="3s"
                begin="2.5s"
                attributeName="opacity"
                from="0.9" to="0"
                keyTimes="0; 1"
                keySplines="1 0 0.8 0"
                calcMode="spline"
                repeatCount="indefinite"/>
    </g>

    <defs>
        <path id="bubblePath1" d="M155 603.5C121.8 485.5 193.589 466.5 240.5 395.5C287.411 324.5 289 259.5 208 164"
              fill="none"/>
        <path id="bubble_6_path" d="M919.5 794C870.5 574.5 878 529 919.5 450C952.7 386.8 921 314.667 901 286.5"/>
        <path id="bubble_5_path" d="M841 853C914 722.5 967 689.5 930.5 595.5C894 501.5 910 308 942 238.5"/>
        <path id="bubble_4_path" d="M900 847C829.5 690.5 855.5 646 900 601.5C944.5 557 970.5 439.5 900 323"/>
        <path id="bubble_3_path"
              d="M176.416 581.5C114.416 491.1 128.416 437 176.416 383C224.416 329 209.416 234 159.916 174"/>
        <path id="bubble_2_path" d="M126 591.5C139 508.5 152.5 446.5 220 371.5C287.5 296.5 178 239 287 142"/>
        <radialGradient id="paint0_radial_5_2" cx="0" cy="0" r="1"
                        gradientTransform="translate(415.946 311.412) rotate(-2.68333) scale(239.832 239.832)">
            <stop offset="0.1631" stop-color="#FFCA4D"/>
            <stop offset="0.723" stop-color="#FF9900"/>
        </radialGradient>
    </defs>
</svg>
